<?xml version="1.0" encoding="UTF-8"?>
<svg id="_レイヤー_2" data-name="レイヤー_2" xmlns="http://www.w3.org/2000/svg" viewBox="0 0 210.54 497.31">
  <defs>
    <style>
      .cls-1 {
        fill: #221714;
      }
    </style>
  </defs>
  <g id="_レイヤー_6" data-name="レイヤー_6">
    <path class="cls-1" d="M210.54,0c-26.12,11.55-46.65,35.47-54.58,62.74-5.35,18.38-6.03,37.84-9.17,56.65-2.28,13.62-5.39,27.13-9.47,40.32-4.04,13.04-9.11,26.94-18.02,37.5-3.89,4.61-9.74,9.95-16.33,8.92-5.98-.93-9.39-6.74-11.38-11.89l-.55.96c4.63.1,9.27,2.7,10.98,7.13,3.32,8.59-5.66,15.67-10.82,21.26-7.41,8.01-12.08,15.15-10.4,26.66,1.18,8.1,5.43,17.77,12.87,21.95,5.66,3.18,12.21,1.97,17.62-1.1,10.02-5.69,12.94-16.84,11.84-27.79-.77-7.64-3.08-16.07-9.43-20.98-6-4.64-13.04-3.62-19.72-1.09-2.31.88-4.6,1.94-6.66,3.31-.32.21-1.17,1.06-1.55,1.12-.44.07,2.85-5.38,3.37-5.91,5.17-5.33,13.15-2.02,18.06,1.78,5.66,4.38,8.68,10.53,10.32,17.37,2.54,10.59,1.62,20.7-3.8,30.17-2.8,4.9-6.13,10.29-12.48,10.09-2.94-.09-5.66-1.53-7.95-3.28-4.16-3.18-7.55-7.69-9.9-12.34-3.36-6.67-6.01-14.55-6.23-22.04-.11-3.85.74-9.95,5.69-9.53,2.57.22,5.11,2.01,7.01,3.64,4.22,3.62,6.82,8.9,5.72,14.51-.77,3.94-3.72,10-7.82,6.16-2.62-2.45-2.75-7.03-2.26-10.28,1.27-8.45,6.22-17.43,12.32-23.19,2.54-2.4,5.4-4.3,8.91-4.85,4.25-.67,8.17.62,10.57,4.32,4.23,6.51,4,16.41,3.01,23.74-1.38,10.18-6.52,19.34-14.19,26.11-8.08,7.12-16.83,13.09-21.97,22.92-2.09,4-3.67,8.85-1.98,13.27,1.89,4.94,6.28,9.1,9.88,12.81,10.45,10.76,22.09,20.75,30.14,33.56,7.08,11.27,11.8,25.32,7.01,38.34-6.11,16.57-22.73,29.28-36.27,39.91-10.7,8.4-21.79,16.31-32.95,24.08-18.46,12.83-37.23,25.23-56.19,37.31-1.08.69-2.16,1.38-3.25,2.06-.26.16-.38.86-.51.94,33.25-20.98,66.86-42.51,97.34-67.4,15.36-12.55,36.78-30.52,34.22-52.88-3.13-27.35-28.01-43.14-44.21-62.58-3.04-3.65-5.79-7.46-5.28-12.44,1.01-9.75,10.14-18.33,17.52-24.22,6.89-5.51,13-10.97,17.02-19,5.11-10.2,7.56-26.3,1.66-36.72-5.11-9.02-15.85-4.78-21.43,1.29-6.33,6.88-13.3,18.73-12,28.36.53,3.89,3.88,9.31,7.9,5.32,1.94-1.93,2.91-5.28,3.38-7.82.89-4.81-.68-9.06-3.83-12.7-2.39-2.76-7.43-6.86-11.36-5.24-7.83,3.22-3.65,18.26-1.93,23.64,2.94,9.2,8.44,20.97,18.26,24.53,10.01,3.62,17.02-8.3,19.86-16.19,4.07-11.3,3.19-26.97-3.93-37.01-5.79-8.18-18.84-15.25-25.87-4.65-1.03,1.56-1.91,3.34-2.28,5.18,0,.03,0,.03.03.01,8.1-7.11,22.35-9.99,30.29-1.47,5.54,5.94,7.33,14.97,7.44,22.83.14,9.75-3.9,18.9-13.08,23.11-16.67,7.64-28.1-10.75-28.69-25.53-.57-14.48,11.73-21.1,19.06-31.6,5.63-8.07,2.74-19.61-8.48-19.86-.14,0-.6.84-.55.96,3.96,10.25,12.64,15.64,22.27,8.31,12.35-9.41,18.8-27.06,23.44-41.16,7.52-22.88,11.26-46.49,14.25-70.3,2.86-22.73,7.43-44.66,22.53-62.83,9.67-11.63,22.57-22.11,36.5-28.27.26-.12.4-.89.51-.94h0Z"/>
  </g>
</svg>